<mxfile host="Electron" modified="2024-07-10T11:21:21.851Z" agent="Mozilla/5.0 (X11; Linux x86_64) AppleWebKit/537.36 (KHTML, like Gecko) draw.io/23.0.2 Chrome/120.0.6099.109 Electron/28.1.0 Safari/537.36" etag="3J7zftUYW1ErVRRbTmeq" version="23.0.2" type="device">
  <diagram name="Page-1" id="Qs6xBwEDw7eqx06Spp4y">
    <mxGraphModel dx="1216" dy="826" grid="1" gridSize="10" guides="1" tooltips="1" connect="1" arrows="1" fold="1" page="1" pageScale="1" pageWidth="827" pageHeight="1169" background="none" math="0" shadow="1">
      <root>
        <mxCell id="0" />
        <mxCell id="1" parent="0" />
        <mxCell id="Yrl-EFUJnGKQ2ElvRdVb-44" style="edgeStyle=orthogonalEdgeStyle;rounded=0;orthogonalLoop=1;jettySize=auto;html=1;entryX=0;entryY=0.5;entryDx=0;entryDy=0;" edge="1" source="Yrl-EFUJnGKQ2ElvRdVb-45" target="Yrl-EFUJnGKQ2ElvRdVb-47" parent="1">
          <mxGeometry relative="1" as="geometry" />
        </mxCell>
        <mxCell id="Yrl-EFUJnGKQ2ElvRdVb-69" style="edgeStyle=orthogonalEdgeStyle;rounded=0;orthogonalLoop=1;jettySize=auto;html=1;exitX=0.5;exitY=1;exitDx=0;exitDy=0;entryX=0;entryY=0.5;entryDx=0;entryDy=0;" edge="1" parent="1" source="Yrl-EFUJnGKQ2ElvRdVb-45" target="Yrl-EFUJnGKQ2ElvRdVb-48">
          <mxGeometry relative="1" as="geometry" />
        </mxCell>
        <mxCell id="Yrl-EFUJnGKQ2ElvRdVb-70" style="edgeStyle=orthogonalEdgeStyle;rounded=0;orthogonalLoop=1;jettySize=auto;html=1;exitX=0.5;exitY=1;exitDx=0;exitDy=0;entryX=0;entryY=0.5;entryDx=0;entryDy=0;" edge="1" parent="1" source="Yrl-EFUJnGKQ2ElvRdVb-45" target="Yrl-EFUJnGKQ2ElvRdVb-50">
          <mxGeometry relative="1" as="geometry" />
        </mxCell>
        <mxCell id="Yrl-EFUJnGKQ2ElvRdVb-71" style="edgeStyle=orthogonalEdgeStyle;rounded=0;orthogonalLoop=1;jettySize=auto;html=1;exitX=0.5;exitY=1;exitDx=0;exitDy=0;entryX=0;entryY=0.5;entryDx=0;entryDy=0;" edge="1" parent="1" source="Yrl-EFUJnGKQ2ElvRdVb-45" target="Yrl-EFUJnGKQ2ElvRdVb-51">
          <mxGeometry relative="1" as="geometry" />
        </mxCell>
        <mxCell id="Yrl-EFUJnGKQ2ElvRdVb-45" value="&lt;font style=&quot;font-size: 37px;&quot;&gt;ORM&lt;/font&gt;" style="rounded=1;whiteSpace=wrap;html=1;" vertex="1" parent="1">
          <mxGeometry x="200" y="305" width="120" height="50" as="geometry" />
        </mxCell>
        <mxCell id="Yrl-EFUJnGKQ2ElvRdVb-46" value="" style="edgeStyle=orthogonalEdgeStyle;rounded=0;orthogonalLoop=1;jettySize=auto;html=1;" edge="1" source="Yrl-EFUJnGKQ2ElvRdVb-47" target="Yrl-EFUJnGKQ2ElvRdVb-55" parent="1">
          <mxGeometry relative="1" as="geometry" />
        </mxCell>
        <mxCell id="Yrl-EFUJnGKQ2ElvRdVb-47" value="&lt;span style=&quot;font-size: 37px;&quot;&gt;src&lt;/span&gt;" style="rounded=1;whiteSpace=wrap;html=1;" vertex="1" parent="1">
          <mxGeometry x="380" y="305" width="120" height="50" as="geometry" />
        </mxCell>
        <mxCell id="Yrl-EFUJnGKQ2ElvRdVb-48" value="&lt;font style=&quot;font-size: 37px;&quot;&gt;dist&lt;br&gt;&lt;/font&gt;" style="rounded=1;whiteSpace=wrap;html=1;" vertex="1" parent="1">
          <mxGeometry x="380" y="425" width="120" height="50" as="geometry" />
        </mxCell>
        <mxCell id="Yrl-EFUJnGKQ2ElvRdVb-50" value="&lt;font style=&quot;font-size: 37px;&quot;&gt;ORM&lt;/font&gt;" style="rounded=1;whiteSpace=wrap;html=1;shadow=0;" vertex="1" parent="1">
          <mxGeometry x="380" y="535" width="120" height="50" as="geometry" />
        </mxCell>
        <mxCell id="Yrl-EFUJnGKQ2ElvRdVb-51" value="&lt;font style=&quot;font-size: 37px;&quot;&gt;ORM&lt;/font&gt;" style="rounded=1;whiteSpace=wrap;html=1;" vertex="1" parent="1">
          <mxGeometry x="380" y="635" width="120" height="50" as="geometry" />
        </mxCell>
        <mxCell id="Yrl-EFUJnGKQ2ElvRdVb-54" value="" style="edgeStyle=orthogonalEdgeStyle;rounded=0;orthogonalLoop=1;jettySize=auto;html=1;" edge="1" source="Yrl-EFUJnGKQ2ElvRdVb-55" target="Yrl-EFUJnGKQ2ElvRdVb-57" parent="1">
          <mxGeometry relative="1" as="geometry" />
        </mxCell>
        <mxCell id="Yrl-EFUJnGKQ2ElvRdVb-55" value="&lt;font style=&quot;font-size: 36px;&quot;&gt;com&lt;/font&gt;" style="whiteSpace=wrap;html=1;rounded=1;" vertex="1" parent="1">
          <mxGeometry x="580" y="300" width="120" height="60" as="geometry" />
        </mxCell>
        <mxCell id="Yrl-EFUJnGKQ2ElvRdVb-56" value="" style="edgeStyle=orthogonalEdgeStyle;rounded=0;orthogonalLoop=1;jettySize=auto;html=1;" edge="1" source="Yrl-EFUJnGKQ2ElvRdVb-57" target="Yrl-EFUJnGKQ2ElvRdVb-59" parent="1">
          <mxGeometry relative="1" as="geometry" />
        </mxCell>
        <mxCell id="Yrl-EFUJnGKQ2ElvRdVb-57" value="&lt;font style=&quot;font-size: 30px;&quot;&gt;thinking&lt;/font&gt;" style="whiteSpace=wrap;html=1;rounded=1;" vertex="1" parent="1">
          <mxGeometry x="780" y="300" width="120" height="60" as="geometry" />
        </mxCell>
        <mxCell id="Yrl-EFUJnGKQ2ElvRdVb-58" value="" style="edgeStyle=orthogonalEdgeStyle;rounded=0;orthogonalLoop=1;jettySize=auto;html=1;" edge="1" source="Yrl-EFUJnGKQ2ElvRdVb-59" target="Yrl-EFUJnGKQ2ElvRdVb-60" parent="1">
          <mxGeometry relative="1" as="geometry" />
        </mxCell>
        <mxCell id="Yrl-EFUJnGKQ2ElvRdVb-59" value="&lt;font style=&quot;font-size: 24px;&quot;&gt;machines&lt;/font&gt;" style="whiteSpace=wrap;html=1;rounded=1;" vertex="1" parent="1">
          <mxGeometry x="980" y="300" width="120" height="60" as="geometry" />
        </mxCell>
        <mxCell id="Yrl-EFUJnGKQ2ElvRdVb-65" style="edgeStyle=orthogonalEdgeStyle;rounded=0;orthogonalLoop=1;jettySize=auto;html=1;exitX=1;exitY=0.5;exitDx=0;exitDy=0;entryX=0;entryY=0.5;entryDx=0;entryDy=0;" edge="1" parent="1" source="Yrl-EFUJnGKQ2ElvRdVb-60" target="Yrl-EFUJnGKQ2ElvRdVb-62">
          <mxGeometry relative="1" as="geometry" />
        </mxCell>
        <mxCell id="Yrl-EFUJnGKQ2ElvRdVb-66" style="edgeStyle=orthogonalEdgeStyle;rounded=0;orthogonalLoop=1;jettySize=auto;html=1;exitX=0.5;exitY=1;exitDx=0;exitDy=0;entryX=0;entryY=0.5;entryDx=0;entryDy=0;" edge="1" parent="1" source="Yrl-EFUJnGKQ2ElvRdVb-60" target="Yrl-EFUJnGKQ2ElvRdVb-61">
          <mxGeometry relative="1" as="geometry" />
        </mxCell>
        <mxCell id="Yrl-EFUJnGKQ2ElvRdVb-60" value="&lt;font style=&quot;font-size: 36px;&quot;&gt;orm&lt;/font&gt;" style="whiteSpace=wrap;html=1;rounded=1;" vertex="1" parent="1">
          <mxGeometry x="1180" y="300" width="120" height="60" as="geometry" />
        </mxCell>
        <mxCell id="Yrl-EFUJnGKQ2ElvRdVb-73" value="" style="edgeStyle=orthogonalEdgeStyle;rounded=0;orthogonalLoop=1;jettySize=auto;html=1;fontFamily=Helvetica;fontSize=12;fontColor=default;" edge="1" parent="1" source="Yrl-EFUJnGKQ2ElvRdVb-61" target="Yrl-EFUJnGKQ2ElvRdVb-72">
          <mxGeometry relative="1" as="geometry" />
        </mxCell>
        <mxCell id="Yrl-EFUJnGKQ2ElvRdVb-78" style="edgeStyle=orthogonalEdgeStyle;rounded=0;orthogonalLoop=1;jettySize=auto;html=1;exitX=0.5;exitY=1;exitDx=0;exitDy=0;entryX=0;entryY=0.5;entryDx=0;entryDy=0;fontFamily=Helvetica;fontSize=12;fontColor=default;" edge="1" parent="1" source="Yrl-EFUJnGKQ2ElvRdVb-61" target="Yrl-EFUJnGKQ2ElvRdVb-74">
          <mxGeometry relative="1" as="geometry" />
        </mxCell>
        <mxCell id="Yrl-EFUJnGKQ2ElvRdVb-80" style="edgeStyle=orthogonalEdgeStyle;rounded=0;orthogonalLoop=1;jettySize=auto;html=1;exitX=0.5;exitY=1;exitDx=0;exitDy=0;entryX=0;entryY=0.5;entryDx=0;entryDy=0;fontFamily=Helvetica;fontSize=12;fontColor=default;" edge="1" parent="1" source="Yrl-EFUJnGKQ2ElvRdVb-61" target="Yrl-EFUJnGKQ2ElvRdVb-76">
          <mxGeometry relative="1" as="geometry" />
        </mxCell>
        <mxCell id="Yrl-EFUJnGKQ2ElvRdVb-61" value="&lt;font style=&quot;font-size: 37px;&quot;&gt;util&lt;/font&gt;" style="rounded=1;whiteSpace=wrap;html=1;" vertex="1" parent="1">
          <mxGeometry x="1360" y="425" width="120" height="50" as="geometry" />
        </mxCell>
        <mxCell id="Yrl-EFUJnGKQ2ElvRdVb-62" value="&lt;span style=&quot;font-size: 37px;&quot;&gt;???&lt;/span&gt;" style="rounded=1;whiteSpace=wrap;html=1;" vertex="1" parent="1">
          <mxGeometry x="1350" y="305" width="120" height="50" as="geometry" />
        </mxCell>
        <mxCell id="Yrl-EFUJnGKQ2ElvRdVb-75" value="" style="edgeStyle=orthogonalEdgeStyle;rounded=0;orthogonalLoop=1;jettySize=auto;html=1;fontFamily=Helvetica;fontSize=12;fontColor=default;" edge="1" parent="1" source="Yrl-EFUJnGKQ2ElvRdVb-72" target="Yrl-EFUJnGKQ2ElvRdVb-74">
          <mxGeometry relative="1" as="geometry" />
        </mxCell>
        <mxCell id="Yrl-EFUJnGKQ2ElvRdVb-72" value="&lt;font style=&quot;font-size: 36px;&quot;&gt;string&lt;/font&gt;" style="whiteSpace=wrap;html=1;rounded=1;" vertex="1" parent="1">
          <mxGeometry x="1560" y="420" width="120" height="60" as="geometry" />
        </mxCell>
        <mxCell id="Yrl-EFUJnGKQ2ElvRdVb-77" value="" style="edgeStyle=orthogonalEdgeStyle;rounded=0;orthogonalLoop=1;jettySize=auto;html=1;fontFamily=Helvetica;fontSize=12;fontColor=default;" edge="1" parent="1" source="Yrl-EFUJnGKQ2ElvRdVb-74" target="Yrl-EFUJnGKQ2ElvRdVb-76">
          <mxGeometry relative="1" as="geometry" />
        </mxCell>
        <mxCell id="Yrl-EFUJnGKQ2ElvRdVb-74" value="&lt;font style=&quot;font-size: 29px;&quot;&gt;constant&lt;/font&gt;" style="whiteSpace=wrap;html=1;rounded=1;" vertex="1" parent="1">
          <mxGeometry x="1560" y="560" width="120" height="60" as="geometry" />
        </mxCell>
        <mxCell id="Yrl-EFUJnGKQ2ElvRdVb-76" value="&lt;font style=&quot;font-size: 22px;&quot;&gt;foreignkey&lt;/font&gt;" style="whiteSpace=wrap;html=1;rounded=1;" vertex="1" parent="1">
          <mxGeometry x="1560" y="700" width="120" height="60" as="geometry" />
        </mxCell>
      </root>
    </mxGraphModel>
  </diagram>
</mxfile>
